<?xml version="1.0" encoding="UTF-8"?><svg id="_레이어_2" xmlns="http://www.w3.org/2000/svg" viewBox="0 0 48 48"><defs><style>.cls-1{fill:none;}.cls-2{fill:#fff;}</style></defs><g id="_레이어_3"><g><path class="cls-2" d="M40.15,18.93c0-2.23-.44-4.58-1.66-6.42-.24-.36-.5-.7-.77-1.03,1.11-3.99-.33-7.24-.33-7.24-.03-.07-.22-.04-.22-.04,0,0-3.61-.04-6.85,2.6-1.98-.62-4.14-.95-6.38-.95s-4.4,.33-6.38,.95c-3.24-2.64-6.85-2.6-6.85-2.6,0,0-.19-.03-.22,.04,0,0-1.44,3.25-.33,7.24-.28,.33-.54,.67-.77,1.03-1.22,1.84-1.66,4.19-1.66,6.42,0,2.84,1.12,5.47,3.03,7.62,2.11,2.38,5.19,3.44,8.77,3.86-.97,.71-1.65,1.8-1.84,3.04-.15,.03-.3,.09-.44,.15-.14,.07-.37,.15-.59,.23-.85,.24-1.61,.36-2.28,.36-.94,0-1.66-.23-2.23-.73-.38-.33-.7-.81-1.04-1.32-.32-.48-.65-.98-1.06-1.41-1.07-1.17-2.26-1.98-3.5-2.28,0,0-.31-.05-.47-.05-.58,0-1.05,.47-1.05,1.05,0,.49,.34,.91,.8,1.02v.02c1.01,.35,1.77,1.2,2.22,1.84,.28,.4,.53,.85,.76,1.37,.69,1.57,1.84,2.77,3.21,3.37,.95,.44,2.02,.64,3.36,.64h0c.08,0,.17,0,.25,0,.7,0,1.36-.07,1.99-.19v6.29h12.61v-9.7c0-1.53-.74-2.87-1.89-3.71,3.58-.42,6.66-1.48,8.77-3.86,1.91-2.14,3.03-4.77,3.03-7.62ZM7.82,30.29c-.22-.03-.37-.19-.35-.34,.02-.15,.22-.25,.44-.22,.22,.03,.37,.19,.35,.34s-.22,.25-.44,.22Zm1.83,1.43c-.13,.1-.36,.03-.52-.16s-.18-.44-.05-.54c.13-.1,.36-.03,.52,.16,.16,.19,.18,.44,.05,.54Zm1.24,1.86c-.12,.13-.38,.07-.59-.12-.2-.19-.27-.45-.14-.58,.12-.13,.38-.07,.59,.12,.2,.19,.27,.45,.14,.58Zm1.36,1.47c-.31-.01-.55-.17-.55-.36,0-.19,.26-.33,.57-.32,.31,.01,.55,.17,.55,.36,0,.19-.26,.33-.57,.32Zm2.91,.22c-.34,.05-.63-.06-.66-.25-.03-.19,.22-.39,.55-.44s.63,.06,.66,.25c.03,.19-.22,.39-.55,.44Zm1.92,.02c-.36,.07-.69-.03-.73-.24s.22-.42,.58-.49c.36-.07,.69,.03,.73,.24s-.22,.42-.58,.49Z"/><rect class="cls-1" width="48" height="48"/></g></g></svg>