<?xml version="1.0" encoding="UTF-8"?><svg id="_레이어_2" xmlns="http://www.w3.org/2000/svg" viewBox="0 0 48 48"><defs><style>.cls-1{fill:none;}.cls-2{fill:#fff;}</style></defs><g id="_레이어_3"><g><g><path class="cls-2" d="M32.4,6H15.6c-5.31,0-9.61,4.3-9.61,9.61v16.79c0,5.31,4.3,9.61,9.61,9.61h16.79c5.31,0,9.61-4.3,9.61-9.61V15.61c0-5.31-4.3-9.61-9.61-9.61Zm6.02,26.41c0,3.32-2.7,6.02-6.02,6.02H15.6c-3.32,0-6.02-2.7-6.02-6.02V15.61c0-3.32,2.7-6.02,6.02-6.02h16.79c3.32,0,6.02,2.7,6.02,6.02v16.79Z"/><path class="cls-2" d="M24,14.38h0c-5.32,0-9.63,4.31-9.63,9.63h0c0,5.32,4.31,9.63,9.63,9.63s9.63-4.31,9.63-9.63h0c0-5.32-4.31-9.63-9.63-9.63Zm6.04,9.63c0,3.34-2.7,6.04-6.04,6.04s-6.04-2.7-6.04-6.04h0c0-3.34,2.7-6.04,6.04-6.04s6.04,2.7,6.04,6.04h0Z"/><circle class="cls-2" cx="34.03" cy="13.98" r="1.72"/></g><rect class="cls-1" width="48" height="48"/></g></g></svg>