<?xml version="1.0" encoding="UTF-8"?><svg id="_레이어_2" xmlns="http://www.w3.org/2000/svg" viewBox="0 0 48 48"><defs><style>.cls-1{fill:none;}.cls-2{fill:#fff;}</style></defs><g id="_레이어_3"><g><g><g><path class="cls-2" d="M3.38,37.12V10.53H13.34c5.92,0,8.88,2.24,8.88,6.71,0,2.95-1.47,4.9-4.42,5.85v.12c3.67,.62,5.5,2.73,5.5,6.32,0,2.27-.79,4.11-2.36,5.5-1.58,1.4-3.92,2.09-7.02,2.09H3.38Zm5.47-15.35h3.41c3,0,4.5-1.24,4.5-3.72,0-1.32-.36-2.25-1.07-2.81s-1.8-.83-3.28-.83h-3.57v7.36Zm0,11.43h4.11c3.13,0,4.69-1.37,4.69-4.11s-1.63-3.92-4.88-3.92h-3.92v8.02Z"/><path class="cls-2" d="M35.98,37.47c-3.33,0-5.85-.88-7.56-2.64-1.71-1.76-2.56-4.26-2.56-7.52v-.5c0-3.23,.87-5.72,2.6-7.48,1.73-1.76,4-2.64,6.82-2.64,3,0,5.19,.83,6.57,2.48,1.38,1.65,2.07,4.12,2.07,7.4v1.86h-12.87c.18,1.86,.76,3.18,1.74,3.97,.98,.79,2.43,1.18,4.34,1.18,2.02,0,4.04-.44,6.08-1.32v3.33c-1.86,1.24-4.28,1.86-7.25,1.86Zm-.81-17.17c-1.06,0-1.98,.37-2.75,1.12-.78,.75-1.23,1.99-1.36,3.72h7.87c0-1.73-.31-2.97-.93-3.72-.62-.75-1.56-1.12-2.83-1.12Z"/></g><rect class="cls-2" x="30.81" y="11.96" width="9.18" height="2.97"/></g><rect class="cls-1" width="48" height="48"/></g></g></svg>