<?xml version="1.0" encoding="UTF-8"?><svg id="_레이어_2" xmlns="http://www.w3.org/2000/svg" viewBox="0 0 138.03 138.03"><defs><style>.cls-1{fill:none;}.cls-2{fill:#0b402c;}</style></defs><g id="_레이어_1-2"><rect class="cls-1" width="138.03" height="138.03"/><path class="cls-2" d="M122.3,64.05c5.65,4.64,2.49,15.13-.3,20.37-2.26,4.24-5.67,7.65-8.61,11.05-2.94,3.41-4.41,4.99-4.41,4.76,2.31-4.61,3.46-8.83,3.46-12.64,0-1.96-.26-3.69-.78-5.19-.52-1.5-1.07-2.62-1.64-3.38-.58-.75-.98-1.18-1.21-1.3-1.5-1.27-4.65-3.89-9.43-7.88-4.79-3.98-47.11-38.48-47.11-38.48-3.82-3.7-6.3-7.78-3.52-12.43L61.37,0c-.12,.46-.38,1.5-.78,3.12-.41,1.62-.61,3.29-.61,5.02,0,3.58,1.15,5.29,2.94,7.1,0,0,55.91,45.97,59.38,48.82Z"/><path class="cls-2" d="M104.45,92.5c-4.72-4.01-59.09-50.34-59.89-50.98-.81-.63-1.33-1.07-1.56-1.3-1.96-2.08-2.94-4.5-2.94-7.27,0-1.04,.11-1.96,.35-2.77,.23-.81,.4-1.32,.52-1.56l-20.95,29.6c.11-.11,.52-.37,1.21-.78,.69-.4,3.19-1.23,3.43-1.27,3.17-.49,6.32,1.3,7.48,4.28,.7,1.8,.87,4.09,.87,7.11v54.53c0,6.34-2.54,10.85-7.62,13.5-2.08,1.04-4.27,1.56-6.58,1.56-2.66,0-5.08-.64-7.27-1.9-3.35-2.19-5.02-5.43-5.02-9.69,0-1.5,.11-2.65,.35-3.46,.11-.35,.4-1.15,.4-1.96,0-1.27-.32-1.9-1.09-2.02-.46-.11-.92,.09-1.38,.61-.46,.52-.81,1.3-1.04,2.34-.23,1.38-.35,2.42-.35,3.12,0,2.89,.75,5.45,2.25,7.7,1.5,2.25,3.46,3.89,5.89,4.93,1.96,.81,4.15,1.21,6.58,1.21,2.88,0,5.63-.67,8.22-1.99,2.6-1.33,4.82-3.32,6.66-5.97,2.88-4.15,5.94-7.79,9.18-10.91,3.23-3.12,6.17-5.57,8.83-7.36,2.65-1.79,3.98-2.62,3.98-2.51-.04-.03-.09-.06-.14-.11-3-.19-5.4-6.57-5.4-14.42,0-.04,0-.08,0-.13,0-.02,0-.04,0-.07v-22.33c7.38,6.46,41.03,34.1,41.03,34.1,4.08,3.46,3.81,7.42,3.81,10.21,0,3.92-1.27,8.43-3.81,13.5,0,.23,4.28-8.27,9.28-14.47,3.41-4.23,15.18-14.22,4.74-23.1Z"/><rect class="cls-2" x="106.86" y="4.74" width="23.07" height="23.07" transform="translate(39.72 -73.68) rotate(41)"/></g></svg>