<?xml version="1.0" encoding="UTF-8"?><svg id="_레이어_2" xmlns="http://www.w3.org/2000/svg" viewBox="0 0 580.56 656.38"><defs><style>.cls-1{fill:#0b402c;}</style></defs><g id="_레이어_1-2"><g><path class="cls-1" d="M565.64,304.59c26.86,22.07,11.83,71.97-1.43,96.86-10.75,20.17-26.97,36.38-40.97,52.56-13.99,16.19-20.99,23.74-20.99,22.64,10.97-21.94,16.46-41.98,16.46-60.09,0-9.32-1.23-17.56-3.71-24.7-2.47-7.12-5.08-12.48-7.82-16.05-2.75-3.56-4.67-5.62-5.76-6.18-7.14-6.03-22.09-18.52-44.86-37.46-22.78-18.93-224.03-182.99-224.03-182.99-18.18-17.59-29.95-37-16.72-59.11L275.87,0c-.56,2.2-1.79,7.14-3.71,14.82-1.93,7.69-2.88,15.64-2.88,23.87,0,17.02,5.46,25.15,13.99,33.75,0,0,265.88,218.6,282.36,232.15Z"/><path class="cls-1" d="M480.75,439.87c-22.45-19.08-280.99-239.41-284.83-242.43-3.85-3.01-6.32-5.07-7.41-6.18-9.34-9.88-14-21.41-14-34.58,0-4.94,.54-9.32,1.65-13.17,1.1-3.83,1.92-6.3,2.47-7.41l-99.61,140.77c.54-.54,2.47-1.78,5.76-3.71,3.3-1.91,15.15-5.86,16.3-6.04,15.06-2.32,30.04,6.16,35.57,20.37,3.34,8.58,4.12,19.43,4.12,33.83v259.31c0,30.17-12.08,51.58-36.22,64.21-9.88,4.94-20.31,7.41-31.28,7.41-12.63,0-24.16-3.02-34.57-9.06-15.92-10.43-23.87-25.8-23.87-46.1,0-7.12,.54-12.62,1.65-16.46,.54-1.65,1.91-5.47,1.91-9.32,0-6.03-1.54-9.02-5.2-9.62-2.19-.54-4.39,.42-6.59,2.88-2.19,2.47-3.83,6.17-4.94,11.11-1.09,6.59-1.65,11.52-1.65,14.81,0,13.72,3.58,25.93,10.7,36.64,7.13,10.7,16.47,18.52,27.99,23.46,9.32,3.83,19.76,5.76,31.28,5.76,13.71,0,26.75-3.17,39.1-9.47,12.35-6.31,22.91-15.78,31.69-28.4,13.72-19.76,28.26-37.05,43.63-51.86,15.36-14.82,29.35-26.47,41.98-34.99,12.62-8.5,18.93-12.48,18.93-11.94-.2-.13-.42-.3-.65-.5-14.25-.9-25.69-31.24-25.69-68.56,0-.2,0-.4,0-.6,0-.11,0-.21,0-.31v-106.19c35.12,30.74,195.1,162.17,195.1,162.17,19.42,16.45,18.11,35.31,18.11,48.57,0,18.66-6.05,40.07-18.11,64.21,0,1.09,20.36-39.34,44.13-68.81,16.23-20.12,72.18-67.63,22.54-109.83Z"/></g></g></svg>